<svg version="1.2" xmlns="http://www.w3.org/2000/svg" viewBox="0 0 500 500" width="500" height="500">
	<title>New Project</title>
	<style>
		.s0 { fill: #000000 } 
		.s1 { fill: none;stroke: #000000;stroke-width: 5.8 } 
	</style>
	<path id="Shape 1" class="s0" d="m42.3 473.8v-5h406.9v5z"/>
	<path id="Shape 2" class="s0" d="m121.1 121.3h5v350.5h-5z"/>
	<path id="Shape 3" class="s0" d="m278.6 119.3v5h-155.2v-5z"/>
	<path id="Shape 4" class="s0" d="m277 189.9h-5v-67.6h5z"/>
	<path id="Shape 5" class="s1" d="m276.5 274c-22.9 0-41.5-18.6-41.5-41.5 0-22.9 18.6-41.5 41.5-41.5 22.9 0 41.5 18.6 41.5 41.5 0 22.9-18.6 41.5-41.5 41.5z"/>
	<path id="Shape 6" class="s0" d="m277.8 393.7h-5v-117.5h5z"/>
	<path id="Shape 7" class="s0" d="m308.8 342.9l-3.9 3.1-31-39.1 4-3.1z"/>
	<path id="Shape 7 copy" class="s0" d="m250.3 348l-4.2-2.7 27.4-41.6 4.2 2.7z"/>
	<path id="Shape 7 copy 2" class="s0" d="m250.3 434l-4.2-2.7 27.4-41.6 4.2 2.7z"/>
</svg>